<svg id="Layer_2" data-name="Layer 2" xmlns="http://www.w3.org/2000/svg" xmlns:xlink="http://www.w3.org/1999/xlink" viewBox="0 0 1004.94 328.54" height="55" alt="India eMobility Show 2023" title="India eMobility Show 2023" class="img-fluid w-80 logo"><defs><clipPath id="clippath"><path d="M0 0h1004.94v328.54H0z" class="cls-5"/></clipPath><clipPath id="clippath-1"><path d="M0 0h1004.94v328.54H0z" class="cls-5"/></clipPath><clipPath id="clippath-2"><path d="M156.43 117.87v124.88h31.22v-93.66h46.84v93.66h31.22v-93.66h46.84v93.66h31.21V117.87H156.44zm234.6 62.43c0-17.24 13.98-31.21 31.23-31.21s31.22 13.98 31.22 31.21-13.98 31.23-31.22 31.23-31.23-13.98-31.23-31.23m-31.22 0c0 34.49 27.96 62.45 62.45 62.45s62.45-27.96 62.45-62.45-27.96-62.43-62.45-62.43-62.45 27.95-62.45 62.43m282.21 62.45h31.22V117.87h-31.22v124.88zm116.3 0h31.22V117.87h-31.22v124.88zm215.41-124.88v62.44c0 17.56-14.5 31.73-32.19 31.2-17.09-.51-30.27-15.42-30.27-32.51v-61.13h-31.21v61.01c0 31.39 22.61 58.98 53.7 63.27 14.68 2.02 28.45-1.15 39.97-7.82v37.88c0 9.78-7.93 17.71-17.72 17.71H353.62v31.22h608.37c23.72 0 42.95-19.23 42.95-42.94V117.87h-31.22zm-972.29-.08v62.88c0 .6 0 1.24.06 1.84.81 31.28 23.02 58.94 54.02 63.85 3.62.59 7.13.86 10.64.86 19.29 0 36.63-8.48 48.51-21.92 6.16-7.03 10.81-15.34 13.51-24.53H95.5c-3.7 12.22-15.03 21.12-28.45 21.12h-1.46v-10.84H41.04c-4.64 0-8.39-3.76-8.39-8.4s3.75-8.38 8.39-8.38h24.55v-27.4H41.04c-4.64 0-8.39-3.76-8.39-8.39s3.75-8.39 8.39-8.39h24.55v-13.26h1.46c15.64 0 28.43 12.08 29.61 27.42h31.52l-.26-23.59v-22.87H1.43zm530.7 62.52c0-17.24 13.98-31.22 31.22-31.22s31.22 13.98 31.22 31.22-13.98 31.21-31.22 31.21-31.22-13.98-31.22-31.21M500.92 71.04v171.71h31.22v-8.42c9.19 5.32 19.83 8.42 31.22 8.42 34.49 0 62.45-27.96 62.45-62.44s-27.96-62.44-62.45-62.44c-11.39 0-22.03 3.09-31.22 8.41V71.03h-31.22zm141.1 31.22h31.22V71.04h-31.22v31.22zm51.39-31.22v117.08c0 30.17 24.46 54.64 54.64 54.64v-31.23c-12.93 0-23.42-10.48-23.42-23.41V71.04h-31.22zm121.83 0v46.84h-15.62v31.22h15.62v93.66h54.64v-31.23h-23.42V149.1h15.61v-31.22h-15.61V71.04h-31.22z" class="cls-5"/></clipPath><clipPath id="clippath-3"><path d="M774.07 56.56l-27.61 45.82h36.29l26.51-45.82h-35.19zm-8.8-48.41l-28.02 48.3h36.29l26.92-48.3h-35.2z" class="cls-5"/></clipPath><linearGradient id="linear-gradient" x1="-228.32" y1="-272.12" x2="-221.31" y2="-272.12" gradientTransform="matrix(143.17 0 0 -143.17 32689.86 -38763.39)" gradientUnits="userSpaceOnUse"><stop offset="0" stop-color="#9d3f98"/><stop offset="1" stop-color="#00a79d"/></linearGradient><linearGradient id="linear-gradient-2" x1="-217.71" y1="-227.19" x2="-210.7" y2="-227.19" gradientTransform="matrix(-21.62 0 0 21.62 -3834.92 4966.98)" xmlns:xlink="http://www.w3.org/1999/xlink" xlink:href="#linear-gradient"/><style>.cls-5{fill:none}.cls-8{fill:#58595b}</style></defs><g id="Layer_1-2" data-name="Layer 1"><g clip-path="url(#clippath)" id="Artwork_176" data-name="Artwork 176"><path d="M2.59.66H22.8v89.03H2.59z" class="cls-8"/><g clip-path="url(#clippath-1)"><path d="M71.93 89.69V.67h23.51l18.5 32.62c5.28 9.38 10.56 20.47 14.52 30.52h.4c-1.32-11.76-1.72-23.78-1.72-37.12V.67h18.5v89.02H124.5l-19.02-34.34c-5.28-9.52-11.1-21.01-15.46-31.44l-.4.13c.53 11.76.79 24.31.79 38.84v26.81H71.92zM194.77 1.86C202.16.67 211.81 0 221.98 0c16.9 0 27.87 3.04 36.45 9.52 9.25 6.86 15.06 17.82 15.06 33.55 0 17.03-6.21 28.79-14.79 36.06-9.39 7.79-23.65 11.5-41.08 11.5-10.44 0-17.83-.66-22.85-1.32V1.86zm20.21 72.64c1.72.4 4.49.4 7 .4 18.22.13 30.11-9.91 30.11-31.18.13-18.49-10.7-28.27-28-28.27-4.49 0-7.39.4-9.11.79v58.25zM318.39.67h20.21v89.02h-20.21zM408.47 66.84l-6.34 22.85h-20.87L408.47.66h26.42l27.61 89.02h-21.66l-6.87-22.85h-25.5zm22.59-15.06l-5.55-18.89c-1.58-5.28-3.17-11.89-4.49-17.17h-.27c-1.32 5.28-2.64 12.02-4.09 17.17l-5.28 18.89h19.68zM2.26 316.31c2.99 1.54 7.58 3.06 12.31 3.06 5.1 0 7.79-2.11 7.79-5.31s-2.33-4.82-8.23-6.93C5.97 304.29.65 299.78.65 292.63c0-8.37 7-14.78 18.57-14.78 5.54 0 9.62 1.16 12.53 2.47l-2.47 8.96c-1.96-.95-5.46-2.33-10.27-2.33s-7.14 2.18-7.14 4.73c0 3.13 2.77 4.52 9.1 6.93 8.67 3.2 12.75 7.72 12.75 14.64 0 8.23-6.34 15.22-19.81 15.22-5.61 0-11.14-1.45-13.91-2.98l2.26-9.18zM93.87 278.65v18.86h18.28v-18.86h11.07v49.09h-11.07V307.2H93.87v20.54H82.72v-49.09h11.15zM219.35 302.69c0 16.09-9.76 25.86-24.11 25.86s-23.09-11-23.09-24.99c0-14.71 9.39-25.71 23.89-25.71s23.31 11.29 23.31 24.84m-35.47.65c0 9.62 4.52 16.39 11.94 16.39s11.8-7.14 11.8-16.68c0-8.82-4.23-16.39-11.87-16.39s-11.87 7.14-11.87 16.67M275.55 327.74l-11.66-49.09h11.87l3.71 20.25c1.09 5.83 2.12 12.16 2.92 17.12h.15c.8-5.32 1.96-11.21 3.2-17.26l4.15-20.1h11.8l3.94 20.68c1.09 5.76 1.89 11 2.62 16.46h.15c.73-5.46 1.82-11.22 2.84-17.05l4-20.1h11.29l-12.67 49.09h-12.02l-4.15-21.13c-.95-4.95-1.75-9.54-2.33-15.15h-.15c-.88 5.54-1.68 10.2-2.85 15.15l-4.66 21.13h-12.16z" class="cls-8"/></g><g clip-path="url(#clippath-2)"><path fill="url(#linear-gradient)" d="M1.43 71.04h1003.51v250.1H1.43z"/></g><g clip-path="url(#clippath-3)"><path transform="rotate(-89.1 773.236 55.288)" fill="url(#linear-gradient-2)" d="M725.58 18.53h95.35v73.49h-95.35z"/></g></g></g></svg>