<svg width="85" height="77" viewBox="0 0 85 77" fill="none" xmlns="http://www.w3.org/2000/svg">
<g clip-path="url(#clip0)">
<path d="M80.3974 59.3147L71.4562 34.1383H69.5739V17.1971H66.2798V12.2559V10.6089V9.90298C66.2798 9.66768 66.2798 9.43239 66.2798 9.19709C66.2798 8.25592 66.7504 7.55003 67.2209 6.84415C68.3974 5.66768 70.2798 5.19709 72.1621 5.43239H78.2798V3.31474H72.1621C71.2209 3.31474 70.0445 3.31474 68.868 3.78533C67.6915 4.02062 66.7503 4.72651 65.8092 5.66768C65.1033 6.60886 64.6327 7.78533 64.3974 8.9618C64.3974 9.19709 64.3974 9.66768 64.3974 9.90298V10.6089V12.2559V17.4324H61.3386V34.1383H58.2798L49.8092 2.37356H52.868V0.491211H3.69152V2.37356H7.69152V28.0206C7.45623 28.0206 7.22093 28.0206 6.98564 28.2559C6.27976 28.4912 5.33858 28.9618 4.6327 29.1971C3.22093 30.1383 2.04446 31.3147 1.33858 32.7265C0.632698 34.1383 0.162109 35.7853 0.162109 37.4324C0.162109 40.4912 0.162109 43.55 0.162109 46.3736V64.4912C0.162109 67.55 1.33858 70.6089 3.69152 72.7265C5.80917 74.8442 8.86799 76.2559 11.9268 76.2559C14.9856 76.2559 18.0445 75.0795 20.1621 72.7265C22.0445 70.8442 23.2209 68.0206 23.4562 65.4324H53.3386C53.5739 68.2559 54.7503 70.8442 56.6327 72.7265C58.7503 74.8442 61.8092 76.2559 64.868 76.2559C67.9268 76.2559 70.9856 75.0795 73.1033 72.7265C74.9856 70.8442 76.1621 68.0206 76.3974 65.4324H83.4562V59.3147H80.3974ZM63.2209 19.3147H67.4562V34.1383H63.2209V19.3147ZM26.0445 2.37356H47.6915L55.9268 33.903H44.3974L41.5739 27.55H26.0445V2.37356ZM9.57387 2.37356H23.9268V27.7853H22.9856H14.0445H9.57387V2.37356ZM18.7503 71.55C17.1033 73.4324 14.5151 74.3736 11.9268 74.3736C9.33858 74.3736 6.75034 73.4324 5.10329 71.55C3.22093 69.6677 2.27976 67.3147 2.27976 64.7265C2.27976 62.1383 3.22093 59.55 5.10329 57.903C6.98564 56.0206 9.33858 55.0794 11.9268 55.0794C14.5151 55.0794 17.1033 56.0206 18.7503 57.903C20.6327 59.7853 21.5739 62.1383 21.5739 64.7265C21.8092 67.3147 20.6327 69.6677 18.7503 71.55ZM72.1621 71.55C70.2798 73.4324 67.6915 74.3736 65.3386 74.3736C62.7503 74.3736 60.1621 73.4324 58.5151 71.55C56.6327 69.6677 55.6915 67.3147 55.6915 64.7265C55.6915 62.1383 56.6327 59.55 58.5151 57.903C60.3974 56.0206 62.9856 55.0794 65.3386 55.0794C67.9268 55.0794 70.5151 56.0206 72.1621 57.903C74.0445 59.7853 74.9856 62.1383 74.9856 64.7265C75.2209 67.3147 74.0445 69.6677 72.1621 71.55ZM82.0445 63.55H76.868C76.6327 60.7265 75.4562 58.1383 73.5739 56.2559C71.4562 54.1383 68.3974 52.7265 65.3386 52.7265C62.2798 52.7265 59.2209 53.903 57.1033 56.2559C55.2209 58.1383 54.0445 60.9618 53.8092 63.55H23.6915C23.4562 60.7265 22.2798 58.1383 20.3974 56.2559C18.2798 54.1383 15.2209 52.7265 12.1621 52.7265C9.10329 52.7265 6.04446 53.903 3.92682 56.2559C2.98564 56.9618 2.51505 57.4324 2.04446 58.1383V46.6089V37.6677C2.04446 34.8442 3.45623 32.2559 5.80917 30.8442C6.27976 30.3736 6.98564 30.1383 7.69152 29.903C7.92682 29.903 8.3974 29.6677 8.6327 29.6677H8.86799H9.57387H14.0445H22.9856H40.3974L43.2209 36.0206H70.0445L78.9856 61.1971H82.2798V63.55H82.0445Z" fill="#36C0CC"/>
<path d="M13.5742 43.5501H15.4566V38.6089H36.3978V36.7266H13.5742V43.5501Z" fill="#36C0CC"/>
</g>
<defs>
<clipPath id="clip0">
<rect width="84" height="76" fill="white" transform="translate(0.162109 0.491211)"/>
</clipPath>
</defs>
</svg>
