<svg width="158" height="95" viewBox="0 0 158 95" fill="none" xmlns="http://www.w3.org/2000/svg">
<path d="M26.3335 38.4063H26.6933L26.9707 38.177L46.4433 22.0781H78.7658L137.79 51.3565C138.7 51.8498 139.598 52.3114 140.471 52.7604C142.758 53.9364 144.877 55.0261 146.617 56.3707C148.94 58.1663 150.417 60.3002 150.417 63.5313V69.0625H137.065H136.358L136.122 69.7298C133.5 77.163 126.442 82.125 118.5 82.125C110.56 82.125 103.497 77.1635 100.81 69.7228L100.571 69.0625H99.8693H58.0652H57.3575L57.1221 69.7298C54.4998 77.163 47.4417 82.125 39.5002 82.125C31.56 82.125 24.4974 77.1635 21.8099 69.7228L21.5714 69.0625H20.8693H7.5835V50.4688C7.5835 43.7788 12.9874 38.4063 19.7502 38.4063H26.3335ZM33.9012 43.1875L31.9168 44.9375H34.5627H102.042L102.486 43.0417L76.1529 29.9792L75.9429 29.875H75.7085H49.3752H48.9972L48.7137 30.125L33.9012 43.1875ZM47.1871 55.8939C45.1471 53.87 42.3818 52.7344 39.5002 52.7344C36.6185 52.7344 33.8532 53.87 31.8132 55.8939C29.7729 57.9181 28.6252 60.6652 28.6252 63.5313C28.6252 66.3973 29.7729 69.1444 31.8132 71.1686C33.8532 73.1925 36.6185 74.3281 39.5002 74.3281C42.3818 74.3281 45.1471 73.1925 47.1871 71.1686C49.2275 69.1444 50.3752 66.3973 50.3752 63.5313C50.3752 60.6652 49.2275 57.9181 47.1871 55.8939ZM126.187 55.8939C124.147 53.87 121.382 52.7344 118.5 52.7344C115.618 52.7344 112.853 53.87 110.813 55.8939C108.773 57.9181 107.625 60.6652 107.625 63.5313C107.625 66.3973 108.773 69.1444 110.813 71.1686C112.853 73.1925 115.618 74.3281 118.5 74.3281C121.382 74.3281 124.147 73.1925 126.187 71.1686C128.227 69.1444 129.375 66.3973 129.375 63.5313C129.375 60.6652 128.227 57.9181 126.187 55.8939Z" stroke="#36C0CC" stroke-width="2"/>
</svg>
