<svg width="92" height="92" viewBox="0 0 92 92" fill="none" xmlns="http://www.w3.org/2000/svg">
<g clip-path="url(#clip0)">
<path d="M48.2099 40.0681L63.0125 20.4121H41.4152H36.0765L19.3325 48.0761H42.1432L23.2152 75.9828L79.2712 39.8254H48.2099V40.0681ZM46.0259 46.1348H22.9725L37.0472 22.3534H41.1725H58.8872L44.0845 42.0094H72.4765L30.4952 68.9454L46.0259 46.1348Z" fill="#36C0CC"/>
<path d="M87.7648 28.1777C85.5808 22.5963 82.1834 17.743 77.8154 13.375C73.6901 9.24965 68.5941 5.85232 63.0128 3.42565C57.6741 1.24165 51.6074 0.0283203 45.5408 0.0283203C39.4741 0.0283203 33.6501 1.24165 28.0688 3.42565C22.7301 5.85232 17.6341 9.24965 13.5088 13.375C9.38344 17.5003 5.98611 22.5963 3.55944 28.1777C1.37544 33.5163 0.162109 39.583 0.162109 45.407C0.162109 51.4737 1.37544 57.2977 3.55944 62.879C5.74344 68.4603 9.14078 73.3137 13.5088 77.6817C17.6341 81.807 22.7301 85.2043 28.3114 87.631C33.8928 89.815 39.7168 91.0283 45.7834 91.0283C51.8501 91.0283 57.6741 89.815 63.2554 87.631C68.8368 85.447 73.6901 82.0497 78.0581 77.6817C82.1834 73.5563 85.5808 68.4603 88.0074 62.879C90.1914 57.2977 91.4048 51.4737 91.4048 45.407C91.1621 39.583 89.9488 33.5163 87.7648 28.1777ZM76.3594 76.2257C68.3514 84.2337 56.9461 89.087 45.5408 88.8443C34.1354 88.8443 22.7301 84.2337 14.7221 76.2257C6.71411 68.2177 1.86078 56.8123 2.10344 45.407C2.10344 34.0017 6.71411 22.5963 14.7221 14.5883C22.7301 6.58032 34.1354 1.72699 45.5408 1.96965C56.9461 1.96965 68.3514 6.58032 76.3594 14.5883C84.3674 22.5963 89.2208 34.0017 88.9781 45.407C89.2208 56.8123 84.3674 68.2177 76.3594 76.2257Z" fill="#36C0CC"/>
</g>
<defs>
<clipPath id="clip0">
<rect width="91" height="91" fill="white" transform="translate(0.162109 0.0283203)"/>
</clipPath>
</defs>
</svg>
