<svg width="92" height="92" viewBox="0 0 92 92" fill="none" xmlns="http://www.w3.org/2000/svg">
<g clip-path="url(#clip0)">
<path d="M61.6313 54.3843V55.3194L62.5643 55.3821C71.1407 55.9583 78.6007 63.4716 78.6007 72.7064C78.6007 82.5439 71.1625 90.0285 61.4192 90.0285C52.3039 90.0285 44.8438 82.5663 44.8438 72.7064V72.7029V72.6993V72.6957V72.6922V72.6887V72.6852V72.6817V72.6782V72.6748V72.6713V72.6679V72.6645V72.6611V72.6577V72.6543V72.6509V72.6476V72.6442V72.6409V72.6376V72.6343V72.631V72.6277V72.6244V72.6212V72.6179V72.6147V72.6115V72.6083V72.6051V72.6019V72.5988V72.5956V72.5925V72.5893V72.5862V72.5831V72.58V72.577V72.5739V72.5708V72.5678V72.5647V72.5617V72.5587V72.5557V72.5527V72.5497V72.5468V72.5438V72.5409V72.538V72.535V72.5321V72.5292V72.5263V72.5235V72.5206V72.5177V72.5149V72.5121V72.5092V72.5064V72.5036V72.5008V72.4981V72.4953V72.4925V72.4898V72.487V72.4843V72.4816V72.4789V72.4762V72.4735V72.4708V72.4682V72.4655V72.4629V72.4602V72.4576V72.455V72.4523V72.4497V72.4472V72.4446V72.442V72.4394V72.4369V72.4343V72.4318V72.4293V72.4268V72.4242V72.4217V72.4192V72.4168V72.4143V72.4118V72.4094V72.4069V72.4045V72.402V72.3996V72.3972V72.3948V72.3924V72.39V72.3876V72.3852V72.3829V72.3805V72.3782V72.3758V72.3735V72.3712V72.3688V72.3665V72.3642V72.3619V72.3596V72.3573V72.3551V72.3528V72.3505V72.3483V72.346V72.3438V72.3416V72.3393V72.3371V72.3349V72.3327V72.3305V72.3283V72.3261V72.3239V72.3218V72.3196V72.3174V72.3153V72.3131V72.311V72.3089V72.3067V72.3046V72.3025V72.3004V72.2983V72.2962V72.2941V72.292V72.2899V72.2878V72.2858V72.2837V72.2817V72.2796V72.2775V72.2755V72.2735V72.2714V72.2694V72.2674V72.2654V72.2634V72.2613V72.2593V72.2573V72.2553V72.2534V72.2514V72.2494V72.2474V72.2455V72.2435V72.2415V72.2396V72.2376V72.2357V72.2337V72.2318V72.2298V72.2279V72.226V72.2241V72.2221V72.2202V72.2183V72.2164V72.2145V72.2126V72.2107V72.2088V72.2069V72.205V72.2031V72.2012V72.1994V72.1975V72.1956V72.1937V72.1919V72.19V72.1881V72.1863V72.1844V72.1826V72.1807V72.1789V72.177V72.1752V72.1733V72.1715V72.1697V72.1678V72.166V72.1642V72.1623V72.1605V72.1587V72.1569V72.1551V72.1532V72.1514V72.1496V72.1478V72.146V72.1442V72.1424V72.1406V72.1388V72.1369V72.1351V72.1333V72.1315V72.1297V72.1279V72.1261V72.1244V72.1226V72.1208V72.119V72.1172V72.1154V72.1136V72.1118V72.11V72.1082V72.1064V72.1046V72.1028V72.1011V72.0993V72.0975V72.0957V72.0939V72.0921V72.0903V72.0885V72.0867V72.0849V72.0832V72.0814V72.0796V72.0778V72.076V72.0742V72.0724V72.0706V72.0688V72.067V72.0652V72.0634V72.0616V72.0598V72.058V72.0562V72.0544V72.0526V72.0508V72.049V72.0472V72.0454V72.0436V72.0418V72.0399V72.0381V72.0363V72.0345V72.0327V72.0308V72.029V72.0272V72.0254V72.0235V72.0217V72.0199V72.018V72.0162V72.0143V72.0125V72.0106V72.0088V72.0069V72.0051V72.0032V72.0014V71.9995V71.9976V71.9958V71.9939V71.992V71.9901V71.9883V71.9864V71.9845V71.9826V71.9807V71.9788V71.9769V71.975V71.9731V71.9712V71.9692V71.9673V71.9654V71.9635V71.9615V71.9596V71.9576V71.9557V71.9538V71.9518V71.9498V71.9479V71.9459V71.9439V71.942V71.94V71.938V71.936V71.934V71.932V71.93V71.928V71.926V71.924V71.922V71.9199V71.9179V71.9159V71.9138V71.9118V71.9097V71.9077V71.9056V71.9035V71.9014V71.8994V71.8973V71.8952V71.8931V71.891V71.8889V71.8867V71.8846V71.8825V71.8804V71.8782V71.8761V71.8739V71.8718V71.8696V71.8674V71.8652V71.8631V71.8609V71.8587V71.8565V71.8542V71.852V71.8498V71.8476V71.8453V71.8431V71.8408V71.8386V71.8363V71.834V71.8317V71.8295V71.8272V71.8249V71.8225V71.8202V71.8179V71.8156V71.8132V71.8109V71.8085V71.8061V71.8038V71.8014V71.799V71.7966V71.7942V71.7918V71.7893V71.7869V71.7845V71.782V71.7795V71.7771V71.7746V71.7721V71.7696V71.7671V71.7646V71.7621V71.7596V71.757V71.7545V71.7519V71.7494V71.7468V71.7442V71.7416V71.739V71.7364V71.7338V71.7312V71.7285V71.7259V71.7232V71.7205V71.7179V71.7152V71.7125V71.7098V71.707V71.7043V71.7016V71.6988V71.6961V71.6933V71.6905V71.6877V71.6849V71.6821V71.6793V71.6765V71.6736V71.6708V71.6679V71.665V71.6621V71.6592V71.6563V71.6534V71.6505V71.6475V71.6446V71.6416V71.6386V71.6357V71.6327V71.6296V71.6266V71.6236V71.6205V71.6175V71.6144V71.6113V71.6082V71.6051V71.602V71.5989V71.5958V71.5926V71.5894V71.5863V71.5831V71.5799V71.5767V71.5734V71.5702V71.5669V71.5637V71.5604V71.5571V71.5538V71.5505V71.5471V71.5438V71.5405V71.5371V71.5337V71.5303V71.5269V71.5235V71.52V71.5166V71.5131V71.5097V71.5062V71.5027V71.4992V71.4956V71.4921V71.4885V71.4849V70.4849H43.8438H12.7231V62.7132H17.1776H18.1776V61.7132V34.0086H28.0865H29.0865V33.0086V5.52543V5.30396H36.1772V5.52543V33.0086V34.0086H37.1772H44.4498H45.4498V33.0086V1.02881H55.5708V33.0086V34.0086H56.5708H61.6313V54.3843ZM42.0256 35.673H41.0256V36.673V40.3374V40.5589V41.3374V41.5589V45.2233V45.4448V46.2233V46.4448V49.4984V49.7199V50.4984V50.7199V54.3843V54.6058V55.3843V55.6058V58.6595V58.881V59.6595V59.881V63.5454V64.5454H42.0256H45.6619H46.2821L46.5577 63.9898C46.8131 63.4751 47.2082 62.9391 47.6762 62.3102L47.704 62.2729C48.1387 61.6889 48.6386 61.0174 48.9819 60.3254L49.3123 59.6595H49.9043H50.3207L50.6141 59.3639C51.6663 58.3035 53.9197 57.1441 55.6771 56.5538L55.486 55.3843H58.3889H59.3889V54.3843V50.7199V50.4984V49.7199V49.4984V46.4448V46.2233V45.4448V45.2233V41.5589V41.3374V40.5589V40.3374V36.673V35.673H58.3889H42.0256ZM38.3893 64.5454H39.3893V63.5454V59.881V59.6595V58.881V58.6595V55.6058V55.3843V54.6058V54.3843V50.7199V50.4984V49.7199V49.4984V46.4448V46.2233V45.4448V45.2233V41.5589V41.3374V40.5589V40.3374V36.673V35.673H38.3893H22.026H21.026V36.673V40.3374V40.5589V41.3374V41.5589V45.2233V45.4448V46.2233V46.4448V49.4984V49.7199V50.4984V50.7199V54.3843V54.6058V55.3843V55.6058V58.6595V58.881V59.6595V59.881V63.5454V64.5454H22.026H38.3893Z" stroke="#36C0CC" stroke-width="2"/>
<path d="M57.7831 70.6523H58.7831V69.6523V64.5449H64.0557V69.6523V70.6523H65.0557H70.1162V75.9811H65.0557H64.0557V76.9811V82.0885H58.9953H58.7831V79.4241V76.9811V75.9811H57.7831H57.1771H52.7227V70.6523H54.7529H57.7831Z" stroke="#36C0CC" stroke-width="2"/>
</g>
<defs>
<clipPath id="clip0">
<rect width="91" height="91" fill="white" transform="translate(0.162109 0.0283203)"/>
</clipPath>
</defs>
</svg>
