<svg width="78" height="78" viewBox="0 0 78 78" fill="none" xmlns="http://www.w3.org/2000/svg">
<g clip-path="url(#clip0)">
<path d="M69.94 17.579L47.3534 2.8343L42.836 6.93004L32.7747 0.991211L4.4387 17.579H0.332031V25.1561H3.61736L6.69736 58.946H69.5294L72.6094 25.1561H77.332V17.579H69.94ZM47.3534 4.88217L66.86 17.579H60.7L44.068 7.74919L47.3534 4.88217ZM32.7747 3.03908L57.4147 17.579H7.72403L32.7747 3.03908ZM67.8867 57.3077H8.34003L5.26003 25.1561H51.2547H70.9667L67.8867 57.3077ZM75.6894 23.5178H51.2547H1.9747V19.4221H75.6894V23.5178Z" fill="#36C0CC"/>
<path d="M15.1155 63.6562C13.8835 63.6562 12.4462 64.2706 11.6248 65.0898C10.5982 65.9089 10.1875 67.3424 10.1875 68.5711C10.1875 69.7999 10.8035 71.2334 11.6248 72.0525C12.6515 73.0765 13.8835 73.486 15.1155 73.486C16.3475 73.486 17.7848 72.8717 18.6062 72.0525C19.6328 71.0286 20.0435 69.7999 20.0435 68.5711C20.0435 67.3424 19.4275 65.9089 18.6062 65.0898C17.7848 64.0658 16.5528 63.6562 15.1155 63.6562ZM17.5795 71.0286C16.9635 71.643 16.1422 72.0525 15.3208 72.0525C14.4995 72.0525 13.6782 71.643 13.0622 71.0286C12.4462 70.4142 12.0355 69.5951 12.0355 68.7759C12.0355 67.9568 12.4462 67.1376 13.0622 66.5233C13.6782 65.9089 14.4995 65.4993 15.3208 65.4993C16.1422 65.4993 16.9635 65.9089 17.5795 66.5233C18.1955 67.1376 18.6062 67.9568 18.6062 68.7759C18.4008 69.5951 18.1955 70.4142 17.5795 71.0286Z" fill="#36C0CC"/>
<path d="M67.8866 62.0177C66.2439 60.3794 63.7799 59.3555 61.3159 59.3555C58.8519 59.3555 56.3879 60.3794 54.7453 62.0177C53.3079 63.4512 52.2813 65.7039 52.0759 67.7517H24.5613C24.3559 65.7039 23.3293 63.4512 21.8919 62.0177C20.2493 60.3794 17.7853 59.3555 15.3213 59.3555C12.6519 59.3555 10.1879 60.3794 8.54528 62.0177C7.10794 63.4512 6.08128 65.7039 5.87594 67.7517H1.97461V69.39H5.87594C6.08128 71.4379 7.10794 73.6906 8.54528 75.1241C10.1879 76.7624 12.6519 77.7863 15.1159 77.7863C17.5799 77.7863 20.0439 76.7624 21.6866 75.1241C23.1239 73.6906 24.1506 71.4379 24.3559 69.39H51.8706C52.0759 71.4379 53.1026 73.6906 54.5399 75.1241C56.1826 76.7624 58.6466 77.7863 61.1106 77.7863C63.5746 77.7863 66.0386 76.7624 67.6813 75.1241C69.3239 73.6906 70.1453 71.4379 70.3506 69.39H74.2519V67.7517H70.5559C70.3506 65.7039 69.3239 63.656 67.8866 62.0177ZM20.6599 74.1001C19.2226 75.5337 17.1693 76.3528 15.3213 76.3528C13.2679 76.3528 11.4199 75.5337 9.98261 74.1001C8.33994 72.6666 7.51861 70.6188 7.51861 68.5709C7.51861 66.523 8.33994 64.6799 9.77728 63.2464C11.2146 61.8129 13.2679 60.9938 15.1159 60.9938C17.1693 60.9938 19.0173 61.8129 20.4546 63.2464C21.8919 64.6799 22.7133 66.7278 22.7133 68.5709C22.7133 70.6188 21.8919 72.6666 20.6599 74.1001ZM66.6546 74.1001C65.2173 75.5337 63.1639 76.3528 61.3159 76.3528C59.2626 76.3528 57.4146 75.5337 55.9773 74.1001C54.5399 72.6666 53.7186 70.6188 53.7186 68.5709C53.7186 66.523 54.5399 64.6799 55.9773 63.2464C57.4146 61.8129 59.4679 60.9938 61.3159 60.9938C63.3693 60.9938 65.2173 61.8129 66.6546 63.2464C68.0919 64.6799 68.9133 66.7278 68.9133 68.5709C68.9133 70.6188 68.0919 72.6666 66.6546 74.1001Z" fill="#36C0CC"/>
<path d="M61.3157 63.6562C60.0837 63.6562 58.6464 64.2706 57.825 65.0898C56.7984 66.1137 56.3877 67.3424 56.3877 68.5711C56.3877 69.7999 57.0037 71.2334 57.825 72.0525C58.8517 73.0765 60.0837 73.486 61.3157 73.486C62.5477 73.486 63.985 72.8717 64.8064 72.0525C65.833 71.0286 66.2437 69.7999 66.2437 68.5711C66.2437 67.3424 65.6277 65.9089 64.8064 65.0898C63.985 64.0658 62.5477 63.6562 61.3157 63.6562ZM63.5744 71.0286C62.9584 71.643 62.137 72.0525 61.3157 72.0525C60.4944 72.0525 59.673 71.643 59.057 71.0286C58.441 70.4142 58.0304 69.5951 58.0304 68.7759C58.0304 67.9568 58.441 67.1376 59.057 66.5233C59.673 65.9089 60.4944 65.4993 61.3157 65.4993C62.137 65.4993 62.9584 65.9089 63.5744 66.5233C64.1904 67.1376 64.601 67.9568 64.601 68.7759C64.601 69.5951 64.1904 70.4142 63.5744 71.0286Z" fill="#36C0CC"/>
<path d="M14.9111 15.3264L15.7325 16.7599L32.5698 7.13488L31.5431 5.49658L14.9111 15.3264Z" fill="#36C0CC"/>
</g>
<defs>
<clipPath id="clip0">
<rect width="77" height="77" fill="white" transform="translate(0.332031 0.991211)"/>
</clipPath>
</defs>
</svg>
