<svg width="86" height="83" viewBox="0 0 86 83" fill="none" xmlns="http://www.w3.org/2000/svg">
<g clip-path="url(#clip0)">
<path d="M4.646 57.3656H35.2538V41.3941V28.1494H4.646V57.3656ZM6.40058 29.9024H33.6942V41.5888V55.8074H6.40058V29.9024Z" fill="#36C0CC"/>
<path d="M45.3911 31.071V28.1494H38.7627V34.577H45.3911V31.071ZM43.6366 31.071V32.824H40.3223V29.9024H43.6366V31.071Z" fill="#36C0CC"/>
<path d="M46.7559 34.3822H53.3843V31.071V28.1494H46.7559V34.3822ZM48.3155 29.9024H51.6297V31.071V32.824H48.3155V29.9024Z" fill="#36C0CC"/>
<path d="M45.3911 38.4724V35.5508H38.7627V41.9783H45.3911V38.4724ZM43.6366 38.4724V40.2254H40.3223V37.3037H43.6366V38.4724Z" fill="#36C0CC"/>
<path d="M46.7559 41.7836H53.3843V38.4724V35.5508H46.7559V41.7836ZM48.3155 37.109H51.6297V38.4724V40.2254H48.3155V37.109Z" fill="#36C0CC"/>
<path d="M38.7627 56.3918H40.3223V45.4844H52.4095V43.7314H38.7627V56.3918Z" fill="#36C0CC"/>
<path d="M52.4097 49.769H43.6367V51.522H52.4097V49.769Z" fill="#36C0CC"/>
<path d="M52.4097 52.4961H43.6367V54.2491H52.4097V52.4961Z" fill="#36C0CC"/>
<path d="M80.2883 75.4793V60.2869C80.6782 59.1183 81.0681 57.7549 81.0681 56.3915C81.0681 53.6646 79.8984 50.9378 77.9488 48.99C77.5589 48.6005 76.974 48.0162 76.3892 47.6266V23.4746V11.009V7.89264V6.33444C76.3892 5.75012 76.1942 5.1658 76.1942 4.58147C75.4144 2.24418 73.075 0.491211 70.5406 0.491211C68.2011 0.491211 66.0566 1.85463 65.2768 3.99715H51.825V2.04941H40.3227V5.1658L38.763 2.43895H32.5245V4.19192H37.7883L40.1277 8.28219L37.7883 12.3724H32.5245V14.1254H38.763L40.3227 11.3986V14.515H51.825V12.5672H64.8869V23.8641V48.2109C64.302 48.6005 63.7172 48.99 63.3273 49.5743C61.3777 51.5221 60.208 54.2489 60.208 56.9758C60.208 58.3392 60.4029 59.5078 60.9878 60.8713V76.0637H51.2401V63.0138H58.0635V41.5886V23.6694H0.162109V62.819H5.62082V75.8689H0.162109V82.8808H85.1621V80.3487V75.8689H80.2883V75.4793ZM50.0704 9.84038V12.5672H41.8823V8.28219V8.08741V7.89264V3.6076H50.0704V9.84038ZM66.4465 23.4746V11.009V7.89264V6.33444C66.4465 5.94489 66.4465 5.55534 66.6415 4.97102C67.2263 3.21805 68.786 2.04941 70.5406 2.04941C72.2951 2.04941 74.0497 3.21805 74.4396 4.97102C74.6346 5.36057 74.6346 5.75012 74.6346 6.33444V7.89264V11.009V23.4746V46.8475C73.2699 46.2632 71.9052 45.8736 70.5406 46.0684C69.1759 46.0684 67.6162 46.458 66.4465 46.8475V23.4746ZM51.825 10.6195V9.84038V5.55534H64.8869C64.8869 5.75012 64.8869 5.94489 64.8869 6.13967V7.69786V10.4247H51.825V10.6195ZM64.302 50.1587C65.8617 48.6005 68.2011 47.6266 70.5406 47.6266C72.88 47.6266 75.0245 48.6005 76.7791 50.1587C78.3387 51.7169 79.3135 54.0542 79.3135 56.3915C79.3135 58.7287 78.3387 60.8713 76.7791 62.6242C75.2195 64.1824 72.88 65.1563 70.5406 65.1563C68.2011 65.1563 66.0566 64.1824 64.302 62.6242C62.7424 61.066 61.7676 58.7287 61.7676 56.3915C61.7676 54.0542 62.7424 51.9116 64.302 50.1587ZM78.5337 63.0138V75.2846H62.5474V63.0138C62.7424 63.2085 62.9373 63.5981 63.1323 63.7929C65.0818 65.7406 67.8112 66.9093 70.5406 66.9093C73.2699 66.9093 75.9993 65.7406 77.9488 63.7929C78.1438 63.5981 78.3387 63.2085 78.5337 63.0138ZM1.9167 60.6765V24.838H56.5039V41.0043V60.6765H1.9167ZM49.4855 62.2347V75.2846H40.3227V62.2347H49.4855ZM38.763 62.2347V75.2846H7.37541V62.2347H38.763ZM83.6025 79.7644V80.7382H1.9167V77.0375H83.6025V79.7644Z" fill="#36C0CC"/>
<path d="M72.6848 9.25586H70.9302V30.0967H72.6848V9.25586Z" fill="#36C0CC"/>
<path d="M72.6848 31.2651H70.9302V33.6024H72.6848V31.2651Z" fill="#36C0CC"/>
</g>
<defs>
<clipPath id="clip0">
<rect width="85" height="82" fill="white" transform="translate(0.162109 0.491211)"/>
</clipPath>
</defs>
</svg>
