<svg width="222" height="41" viewBox="0 0 222 41" fill="none" xmlns="http://www.w3.org/2000/svg">
<path opacity="0.99" d="M7.92877 0.763184L0.498047 13.6287H30.2834L37.6829 0.763184H7.92877Z" fill="url(#paint0_linear)"/>
<path opacity="0.99" d="M45.1135 13.6289L30.2521 39.3288H15.3906L30.2833 13.6289H45.1135Z" fill="#63C8D4"/>
<path opacity="0.99" d="M22.7902 26.5254L15.3907 39.3286L0.498047 13.6287L7.92877 0.763184L22.7902 26.5254Z" fill="url(#paint1_linear)"/>
<path d="M63.1367 31.8281C64.1299 32.0152 64.936 32.3823 65.555 32.9293C66.1884 33.4763 66.5051 34.2968 66.5051 35.3908C66.5051 36.9886 65.9293 38.1186 64.7777 38.7808C63.6405 39.4286 62.0427 39.7524 59.9842 39.7524H55.1691V24.789H59.4012C61.5029 24.789 63.1079 25.0913 64.2163 25.6959C65.3247 26.286 65.8789 27.2577 65.8789 28.6108C65.8789 29.4889 65.6126 30.2014 65.08 30.7485C64.5618 31.2811 63.914 31.6409 63.1367 31.8281ZM58.7103 27.2937V30.77H60.0274C61.5245 30.77 62.273 30.1655 62.273 28.9563C62.273 28.3517 62.0715 27.9271 61.6684 27.6823C61.2653 27.4232 60.6248 27.2937 59.7467 27.2937H58.7103ZM60.0058 37.183C60.9415 37.183 61.6468 37.0462 62.1218 36.7727C62.6113 36.4848 62.856 35.9594 62.856 35.1965C62.856 33.8146 61.9923 33.1236 60.2649 33.1236H58.7103V37.183H60.0058ZM79.9611 34.7862C79.9611 35.8082 79.738 36.7223 79.2918 37.5284C78.8599 38.3345 78.205 38.9679 77.3269 39.4286C76.4488 39.8892 75.3764 40.1195 74.1096 40.1195C72.2095 40.1195 70.7628 39.6373 69.7696 38.6728C68.7763 37.7084 68.2797 36.4128 68.2797 34.7862V24.789H71.8208V34.6351C71.8208 35.5995 72.0008 36.3193 72.3606 36.7943C72.7349 37.2549 73.3179 37.4853 74.1096 37.4853C74.9157 37.4853 75.4987 37.2549 75.8586 36.7943C76.2329 36.3193 76.42 35.5995 76.42 34.6351V24.789H79.9611V34.7862ZM87.2487 24.4219C88.3715 24.4219 89.3431 24.5803 90.1637 24.8969C90.9986 25.2136 91.7543 25.6959 92.4308 26.3436L90.7898 28.2653C89.7678 27.4304 88.6738 27.013 87.5078 27.013C86.8888 27.013 86.3994 27.1425 86.0395 27.4016C85.6797 27.6464 85.4997 28.0062 85.4997 28.4813C85.4997 28.8123 85.5789 29.0858 85.7372 29.3018C85.8956 29.5033 86.1763 29.6976 86.5793 29.8848C86.9824 30.0719 87.587 30.295 88.3931 30.5541C89.9189 31.0435 91.0417 31.6481 91.7615 32.3679C92.4812 33.0732 92.8411 34.0809 92.8411 35.3908C92.8411 36.3265 92.6036 37.1542 92.1286 37.8739C91.6535 38.5793 90.9698 39.1335 90.0773 39.5365C89.1848 39.9252 88.1268 40.1195 86.9032 40.1195C85.6797 40.1195 84.5928 39.9252 83.6428 39.5365C82.7071 39.1479 81.901 38.6296 81.2244 37.9819L83.0166 36.017C83.5924 36.5064 84.1826 36.8735 84.7872 37.1182C85.4062 37.3629 86.0755 37.4853 86.7953 37.4853C87.5294 37.4853 88.1052 37.3269 88.5226 37.0102C88.9545 36.6791 89.1704 36.2257 89.1704 35.6499C89.1704 35.2756 89.0912 34.9661 88.9329 34.7214C88.7746 34.4623 88.501 34.232 88.1124 34.0305C87.7237 33.829 87.1623 33.613 86.4282 33.3827C84.7728 32.8789 83.5924 32.2599 82.8871 31.5258C82.1961 30.7916 81.8506 29.8632 81.8506 28.7404C81.8506 27.8767 82.0809 27.1209 82.5416 26.4732C83.0022 25.811 83.6428 25.3072 84.4633 24.9617C85.2838 24.6018 86.2123 24.4219 87.2487 24.4219ZM98.3313 24.789V39.7524H94.7901V24.789H98.3313ZM112.646 39.7524H108.134L103.815 28.1574C103.959 29.2946 104.067 30.3022 104.139 31.1803C104.225 32.044 104.268 33.0732 104.268 34.268V39.7524H101.116V24.789H105.521L109.947 36.4056C109.631 34.4335 109.472 32.5766 109.472 30.8348V24.789H112.646V39.7524ZM124.61 24.789L124.243 27.3153H118.975V30.8996H123.574V33.3827H118.975V37.2046H124.61V39.7524H115.434V24.789H124.61ZM131.403 24.4219C132.526 24.4219 133.498 24.5803 134.318 24.8969C135.153 25.2136 135.909 25.6959 136.585 26.3436L134.944 28.2653C133.922 27.4304 132.828 27.013 131.662 27.013C131.043 27.013 130.554 27.1425 130.194 27.4016C129.834 27.6464 129.654 28.0062 129.654 28.4813C129.654 28.8123 129.733 29.0858 129.892 29.3018C130.05 29.5033 130.331 29.6976 130.734 29.8848C131.137 30.0719 131.742 30.295 132.548 30.5541C134.073 31.0435 135.196 31.6481 135.916 32.3679C136.636 33.0732 136.996 34.0809 136.996 35.3908C136.996 36.3265 136.758 37.1542 136.283 37.8739C135.808 38.5793 135.124 39.1335 134.232 39.5365C133.339 39.9252 132.281 40.1195 131.058 40.1195C129.834 40.1195 128.747 39.9252 127.797 39.5365C126.862 39.1479 126.056 38.6296 125.379 37.9819L127.171 36.017C127.747 36.5064 128.337 36.8735 128.942 37.1182C129.561 37.3629 130.23 37.4853 130.95 37.4853C131.684 37.4853 132.26 37.3269 132.677 37.0102C133.109 36.6791 133.325 36.2257 133.325 35.6499C133.325 35.2756 133.246 34.9661 133.087 34.7214C132.929 34.4623 132.656 34.232 132.267 34.0305C131.878 33.829 131.317 33.613 130.583 33.3827C128.927 32.8789 127.747 32.2599 127.042 31.5258C126.351 30.7916 126.005 29.8632 126.005 28.7404C126.005 27.8767 126.235 27.1209 126.696 26.4732C127.157 25.811 127.797 25.3072 128.618 24.9617C129.438 24.6018 130.367 24.4219 131.403 24.4219ZM143.528 24.4219C144.651 24.4219 145.622 24.5803 146.443 24.8969C147.278 25.2136 148.033 25.6959 148.71 26.3436L147.069 28.2653C146.047 27.4304 144.953 27.013 143.787 27.013C143.168 27.013 142.679 27.1425 142.319 27.4016C141.959 27.6464 141.779 28.0062 141.779 28.4813C141.779 28.8123 141.858 29.0858 142.016 29.3018C142.175 29.5033 142.455 29.6976 142.858 29.8848C143.262 30.0719 143.866 30.295 144.672 30.5541C146.198 31.0435 147.321 31.6481 148.041 32.3679C148.76 33.0732 149.12 34.0809 149.12 35.3908C149.12 36.3265 148.883 37.1542 148.408 37.8739C147.933 38.5793 147.249 39.1335 146.356 39.5365C145.464 39.9252 144.406 40.1195 143.182 40.1195C141.959 40.1195 140.872 39.9252 139.922 39.5365C138.986 39.1479 138.18 38.6296 137.504 37.9819L139.296 36.017C139.872 36.5064 140.462 36.8735 141.066 37.1182C141.685 37.3629 142.355 37.4853 143.074 37.4853C143.809 37.4853 144.384 37.3269 144.802 37.0102C145.234 36.6791 145.45 36.2257 145.45 35.6499C145.45 35.2756 145.37 34.9661 145.212 34.7214C145.054 34.4623 144.78 34.232 144.392 34.0305C144.003 33.829 143.441 33.613 142.707 33.3827C141.052 32.8789 139.872 32.2599 139.166 31.5258C138.475 30.7916 138.13 29.8632 138.13 28.7404C138.13 27.8767 138.36 27.1209 138.821 26.4732C139.281 25.811 139.922 25.3072 140.742 24.9617C141.563 24.6018 142.491 24.4219 143.528 24.4219ZM171.049 39.7524H167.572L167.313 33.9009C167.241 32.5046 167.205 31.2595 167.205 30.1655C167.205 29.3306 167.227 28.5388 167.27 27.7903L164.96 38.1762H161.613L159.151 27.7903C159.238 29.0427 159.281 30.223 159.281 31.3314C159.281 32.1663 159.259 33.0372 159.216 33.9441L158.957 39.7524H155.502L156.625 24.789H161.095L163.34 34.9374L165.435 24.789H169.926L171.049 39.7524ZM182.344 24.789L181.977 27.3153H176.709V30.8996H181.308V33.3827H176.709V37.2046H182.344V39.7524H173.168V24.789H182.344ZM188.7 24.789C191.047 24.789 192.925 25.3216 194.336 26.3868C195.761 27.4376 196.474 29.3737 196.474 32.1951C196.474 34.9733 195.783 36.931 194.401 38.0682C193.019 39.191 191.227 39.7524 189.024 39.7524H184.533V24.789H188.7ZM188.074 27.3585V37.183H189.24C190.406 37.183 191.292 36.8231 191.896 36.1033C192.501 35.3692 192.803 34.0665 192.803 32.1951C192.803 30.914 192.652 29.9207 192.35 29.2154C192.047 28.5101 191.637 28.0278 191.119 27.7687C190.601 27.4952 189.96 27.3585 189.197 27.3585H188.074ZM202.139 24.789V39.7524H198.598V24.789H202.139ZM212.805 39.7524L212.027 36.5352H207.666L206.91 39.7524H203.239L207.752 24.789H212.049L216.562 39.7524H212.805ZM208.27 33.9657H211.423L209.847 27.3585L208.27 33.9657Z" fill="white"/>
<g clip-path="url(#clip0)">
<path d="M58.8074 15.1244L53.7656 0.763184H55.9984L59.8878 12.6645H60.5721L64.4614 0.763184H66.6942L61.6524 15.1244H58.8074Z" fill="#D4D4D4"/>
<path d="M79.5866 15.1244L75.5531 3.15069H74.9409L70.9075 15.1244H68.7827L73.8245 0.763184H76.6695L81.7113 15.1244H79.5866Z" fill="#D4D4D4"/>
<path d="M86.3931 15.1244V0.763184H88.3738V13.5689H95.0001V15.1244H86.3931Z" fill="#D4D4D4"/>
<path d="M101.914 0.763184H99.8975V15.1244H101.914V0.763184Z" fill="#D4D4D4"/>
<path d="M117.364 15.1244L113.366 3.15069H112.718L108.721 15.1244H106.56L111.602 0.763184H114.447L119.489 15.1244H117.364Z" fill="#D4D4D4"/>
<path d="M133.93 15.1244L126.836 4.85089H126.188V15.1244H124.171V0.763184H126.08L133.138 11.0729H133.822V0.763184H135.803V15.1244H133.93Z" fill="#D4D4D4"/>
<path d="M145.275 15.1244V2.31868H140.629V0.763184H151.901V2.31868H147.255V15.1244H145.275Z" fill="#D4D4D4"/>
</g>
<defs>
<linearGradient id="paint0_linear" x1="4.48254" y1="9.71933" x2="22.8942" y2="6.52397" gradientUnits="userSpaceOnUse">
<stop offset="0.054417" stop-color="#279999"/>
<stop offset="1" stop-color="#2FAFB2"/>
</linearGradient>
<linearGradient id="paint1_linear" x1="8.25288" y1="16.4856" x2="24.5559" y2="33.6224" gradientUnits="userSpaceOnUse">
<stop offset="0.054417" stop-color="#36C0CC"/>
<stop offset="1" stop-color="#2FAFB2"/>
</linearGradient>
<clipPath id="clip0">
<rect width="98.135" height="14.3612" fill="white" transform="translate(53.7656 0.763184)"/>
</clipPath>
</defs>
</svg>
