<svg width="141" height="41" viewBox="0 0 141 41" fill="none" xmlns="http://www.w3.org/2000/svg"><path d="M57.2356 13.231L60.6197 23.5953H60.745L64.1604 13.231H66.7611L62.155 26.3675H59.241L54.6349 13.231H57.2356Z" fill="#2D3047"/> <path d="M70.2392 26.399H67.7012L72.3073 13.231H75.2213L79.8274 26.3675H77.2893L73.8113 15.9087H73.7173L70.2392 26.399Z" fill="#2D3047"/> <path d="M83.1488 26.399V13.231H85.5302V24.3828H91.2956V26.3675H83.1488V26.399Z" fill="#2D3047"/> <path d="M97.2804 13.231V26.3675H94.899V13.231H97.2804Z" fill="#2D3047"/> <path d="M103.108 26.399H100.57L105.176 13.231H108.091L112.697 26.3675H110.159L106.68 15.9402H106.586L103.108 26.399Z" fill="#2D3047"/> <path d="M126.766 13.231V26.3675H124.666L118.494 17.4208H118.4V26.3675H116.018V13.231H118.149L124.29 22.2091H124.416V13.231H126.766Z" fill="#2D3047"/> <path d="M130.338 15.2471V13.231H140.772V15.2156H136.73V26.3675H134.38V15.2471H130.338Z" fill="#2D3047"/> <path opacity="0.99" d="M8.22926 0L0.77179 13.0105H30.6644L38.0905 0H8.22926Z" fill="url(#paint0_linear)"/> <path opacity="0.99" d="M45.548 13.0107L30.6331 39.0002H15.7181L30.6644 13.0107H45.548Z" fill="#63C8D4"/> <path opacity="0.99" d="M23.1442 26.0525L15.7181 39L0.77179 13.0105L8.22926 0L23.1442 26.0525Z" fill="url(#paint1_linear)"/> <path d="M60.8236 32.407C61.359 32.407 61.7953 32.561 62.1326 32.869C62.4773 33.1697 62.6496 33.5583 62.6496 34.035C62.6496 34.453 62.5103 34.816 62.2316 35.124C61.9603 35.432 61.5386 35.7437 60.9666 36.059L63.2216 38.171C63.5443 37.511 63.7863 36.8143 63.9476 36.081L64.5526 36.257C64.318 37.137 64.0063 37.9033 63.6176 38.556L64.9816 39.81L64.5086 40.184L63.2766 39.029C62.9613 39.403 62.6056 39.689 62.2096 39.887C61.821 40.085 61.3553 40.184 60.8126 40.184C60.38 40.184 59.9876 40.1033 59.6356 39.942C59.2836 39.7733 59.005 39.5387 58.7996 39.238C58.6016 38.93 58.5026 38.578 58.5026 38.182C58.5026 37.7127 58.6346 37.3093 58.8986 36.972C59.1626 36.6273 59.5586 36.301 60.0866 35.993C59.6833 35.6117 59.3973 35.289 59.2286 35.025C59.06 34.7537 58.9756 34.4383 58.9756 34.079C58.9756 33.595 59.1443 33.1953 59.4816 32.88C59.819 32.5647 60.2663 32.407 60.8236 32.407ZM60.8236 32.902C60.457 32.902 60.1636 33.0157 59.9436 33.243C59.7236 33.463 59.6136 33.738 59.6136 34.068C59.6136 34.3467 59.6796 34.5997 59.8116 34.827C59.951 35.047 60.2113 35.3403 60.5926 35.707C61.084 35.4357 61.4433 35.1753 61.6706 34.926C61.9053 34.6693 62.0226 34.3797 62.0226 34.057C62.0226 33.6977 61.909 33.4153 61.6816 33.21C61.4616 33.0047 61.1756 32.902 60.8236 32.902ZM60.4716 36.345C60.0316 36.609 59.7016 36.8877 59.4816 37.181C59.269 37.467 59.1626 37.7933 59.1626 38.16C59.1626 38.6073 59.3203 38.9703 59.6356 39.249C59.9583 39.5203 60.369 39.656 60.8676 39.656C61.3076 39.656 61.6853 39.5753 62.0006 39.414C62.316 39.2453 62.6093 38.996 62.8806 38.666L60.4716 36.345ZM75.5964 32.407C76.0144 32.407 76.3664 32.4657 76.6524 32.583C76.9457 32.693 77.239 32.8653 77.5324 33.1L77.1804 33.54C76.9237 33.3347 76.678 33.188 76.4434 33.1C76.2087 33.012 75.941 32.968 75.6404 32.968C74.929 32.968 74.3497 33.2393 73.9024 33.782C73.4624 34.3247 73.2424 35.1607 73.2424 36.29C73.2424 37.0233 73.345 37.6393 73.5504 38.138C73.7557 38.6367 74.0344 39.007 74.3864 39.249C74.7457 39.4837 75.1527 39.601 75.6074 39.601C75.9667 39.601 76.271 39.5497 76.5204 39.447C76.7697 39.337 77.0227 39.1793 77.2794 38.974L77.6204 39.403C77.0704 39.9237 76.392 40.184 75.5854 40.184C74.9987 40.184 74.4744 40.0337 74.0124 39.733C73.5577 39.4323 73.1984 38.9923 72.9344 38.413C72.6777 37.8263 72.5494 37.1187 72.5494 36.29C72.5494 35.4613 72.685 34.7573 72.9564 34.178C73.2277 33.5913 73.5907 33.1513 74.0454 32.858C74.5074 32.5573 75.0244 32.407 75.5964 32.407ZM83.1014 32.407C83.7174 32.407 84.2564 32.5573 84.7184 32.858C85.1804 33.1513 85.5397 33.5913 85.7964 34.178C86.0531 34.7647 86.1814 35.4723 86.1814 36.301C86.1814 37.115 86.0531 37.8153 85.7964 38.402C85.5471 38.9813 85.1914 39.425 84.7294 39.733C84.2674 40.0337 83.7247 40.184 83.1014 40.184C82.4927 40.184 81.9574 40.0337 81.4954 39.733C81.0334 39.4323 80.6741 38.9923 80.4174 38.413C80.1607 37.8337 80.0324 37.1333 80.0324 36.312C80.0324 35.498 80.1607 34.7977 80.4174 34.211C80.6741 33.6243 81.0334 33.177 81.4954 32.869C81.9647 32.561 82.5001 32.407 83.1014 32.407ZM83.1014 32.968C82.3681 32.968 81.7887 33.2503 81.3634 33.815C80.9381 34.3723 80.7254 35.2047 80.7254 36.312C80.7254 37.4047 80.9381 38.2297 81.3634 38.787C81.7961 39.3443 82.3754 39.623 83.1014 39.623C83.8567 39.623 84.4434 39.348 84.8614 38.798C85.2794 38.2407 85.4884 37.4083 85.4884 36.301C85.4884 35.1863 85.2757 34.354 84.8504 33.804C84.4324 33.2467 83.8494 32.968 83.1014 32.968ZM96.2084 40.063H95.5704L95.2294 36.455C95.0901 35.0543 94.9947 33.9617 94.9434 33.177L93.0514 39.172H92.4244L90.4664 33.177C90.4297 33.8883 90.3564 34.8307 90.2464 36.004L90.2134 36.433L89.8834 40.063H89.2564L89.9714 32.528H90.8844L92.7544 38.391L94.5584 32.528H95.4824L96.2084 40.063ZM101.604 32.528C102.499 32.528 103.185 32.715 103.661 33.089C104.145 33.4557 104.387 34.0203 104.387 34.783C104.387 35.5897 104.134 36.1837 103.628 36.565C103.13 36.939 102.444 37.126 101.571 37.126H100.493V40.063H99.8332V32.528H101.604ZM101.571 36.587C102.253 36.587 102.778 36.4513 103.144 36.18C103.511 35.9087 103.694 35.4467 103.694 34.794C103.694 34.178 103.515 33.738 103.155 33.474C102.803 33.2027 102.283 33.067 101.593 33.067H100.493V36.587H101.571ZM111.215 40.063L110.555 38.006H107.387L106.727 40.063H106.056L108.575 32.528H109.4L111.908 40.063H111.215ZM107.574 37.445H110.379L108.982 33.067L107.574 37.445ZM119.932 40.063H119.063L115.51 33.254C115.569 34.1707 115.598 35.036 115.598 35.85V40.063H114.971V32.528H115.818L119.393 39.337C119.334 38.4863 119.305 37.742 119.305 37.104V32.528H119.932V40.063ZM128.4 32.528L126.013 37.115V40.063H125.353V37.126L122.944 32.528H123.681L125.705 36.532L127.696 32.528H128.4Z" fill="#303030"/> <defs><linearGradient id="paint0_linear" x1="4.77063" y1="9.05707" x2="23.2567" y2="5.87313" gradientUnits="userSpaceOnUse"><stop offset="0.054417" stop-color="#279999"/> <stop offset="1" stop-color="#2FAFB2"/></linearGradient> <linearGradient id="paint1_linear" x1="8.55454" y1="15.8996" x2="25.047" y2="33.1041" gradientUnits="userSpaceOnUse"><stop offset="0.054417" stop-color="#36C0CC"/> <stop offset="1" stop-color="#2FAFB2"/></linearGradient></defs></svg>