<svg width="12" height="21" fill="none" xmlns="http://www.w3.org/2000/svg" alt="facebook" class=""><path d="M11.697 0h-4.01L7.66.001c-4.047.013-4.576 2.75-4.578 5.14a.289.289 0 00-.008.07V6.89H.304a.309.309 0 00-.215.086.29.29 0 00-.089.208v4.141a.29.29 0 00.089.208.31.31 0 00.215.086h2.77v9.087a.29.29 0 00.089.208.309.309 0 00.215.086H7.42c.08 0 .158-.031.215-.086a.29.29 0 00.089-.208v-9.087h3.972c.08 0 .158-.03.215-.086a.29.29 0 00.089-.208v-4.14a.29.29 0 00-.089-.209.309.309 0 00-.215-.086H7.42V4.664h4.276c.08 0 .158-.03.215-.086A.29.29 0 0012 4.37V.294a.287.287 0 00-.089-.208.304.304 0 00-.214-.086z" fill="#052F42"/></svg>