<svg width="23" height="21" fill="none" xmlns="http://www.w3.org/2000/svg" alt="linkedin" class=""><path d="M.084 6.985h5.21v13.604H.084V6.985zM2.637 4.814c1.457 0 2.637-1.077 2.637-2.407S4.094 0 2.637 0C1.181 0 0 1.078 0 2.407c0 1.33 1.18 2.407 2.637 2.407zM18.391 6.677c-1.067 0-1.97.194-2.714.583-.743.389-1.476 1.035-2.202 1.94V6.984H8.623v13.604h5.21v-6.533c0-1.238.197-2.096.59-2.575.392-.478.904-.717 1.536-.717.571 0 1.015.177 1.331.532.316.354.474.958.474 1.813v7.48H23v-8.646c0-1.794-.408-3.12-1.223-3.978-.814-.858-1.944-1.287-3.386-1.287z" fill="#052F42"/></svg>