<svg width="21" height="21" fill="none" xmlns="http://www.w3.org/2000/svg" alt="instagram" class=""><path d="M10.058 7.564a2.494 2.494 0 100 4.989 2.494 2.494 0 000-4.99zm9.988-2.465a6.569 6.569 0 00-.423-2.273A4.023 4.023 0 0017.29.493 6.568 6.568 0 0015.017.07C13.719 0 13.337 0 10.058 0S6.397 0 5.1.07a6.568 6.568 0 00-2.273.423A4.023 4.023 0 00.493 2.826 6.568 6.568 0 00.07 5.1C0 6.397 0 6.78 0 10.06c0 3.278 0 3.66.07 4.958A6.9 6.9 0 00.493 17.3c.2.53.513 1.01.915 1.408.4.405.885.717 1.418.915a6.569 6.569 0 002.273.423c1.298.07 1.68.07 4.96.07 3.278 0 3.66 0 4.958-.07a6.568 6.568 0 002.273-.423 3.912 3.912 0 001.418-.915c.402-.398.714-.879.915-1.408.274-.73.417-1.503.423-2.283.07-1.298.07-1.68.07-4.959s0-3.661-.07-4.959zm-2.555 8.047a5.762 5.762 0 01-.392 1.81 3.883 3.883 0 01-2.143 2.143 5.762 5.762 0 01-1.82.352H6.98a5.761 5.761 0 01-1.82-.352 3.529 3.529 0 01-1.318-.865 3.53 3.53 0 01-.825-1.278 5.522 5.522 0 01-.342-1.82v-3.078V6.98c.011-.621.127-1.237.342-1.82a3.53 3.53 0 01.865-1.318 3.611 3.611 0 011.278-.825 5.763 5.763 0 011.82-.352h6.156a5.764 5.764 0 011.82.352c.5.186.95.482 1.318.865.364.361.646.797.825 1.278.215.584.334 1.198.352 1.82v3.078c0 2.072.07 2.283.04 3.078v.01zm-1.61-7.483a2.395 2.395 0 00-1.417-1.418 4.023 4.023 0 00-1.388-.222H7.04a4.023 4.023 0 00-1.388.262 2.394 2.394 0 00-1.419 1.368 4.295 4.295 0 00-.21 1.388v6.035c.01.473.098.942.26 1.388a2.394 2.394 0 001.419 1.418c.43.158.88.246 1.338.261h6.035a4.023 4.023 0 001.388-.261 2.395 2.395 0 001.418-1.418c.168-.444.257-.914.261-1.388v-3.018-3.017c0-.475-.088-.946-.261-1.388v.01zM10.059 13.9a3.832 3.832 0 01-3.832-3.842 3.842 3.842 0 113.832 3.842zm4.023-6.93a.905.905 0 010-1.8.905.905 0 010 1.8z" fill="#052F42"/></svg>