<svg width="18" height="20" fill="none" xmlns="http://www.w3.org/2000/svg" alt="x corp." class=""><path d="M10.734 8.858c2.22-2.68 4.449-5.35 6.695-8.05h-1.515a.201.201 0 00-.152.074c-.597.71-1.186 1.428-1.783 2.146-1.32 1.584-2.63 3.168-3.958 4.752-.16-.239-.33-.488-.49-.736C8.174 5.008 6.828 2.982 5.473.947c-.045-.065-.125-.13-.187-.13C3.637.81 1.988.81.33.81H.009c2.345 3.536 4.68 7.045 7.016 10.563A5183.782 5183.782 0 010 19.81h1.587c.018 0 .044-.019.062-.037 1.543-1.851 3.076-3.703 4.618-5.554.49-.59.972-1.17 1.471-1.768a2650.34 2650.34 0 014.886 7.359H18c-2.434-3.657-4.85-7.295-7.275-10.951h.009zM2.202 2.061h2.416c3.727 5.517 7.462 11.034 11.189 16.55H13.39C9.655 13.095 5.938 7.587 2.202 2.061z" fill="#052F42"/></svg>