<svg width="40" height="30" viewBox="0 0 256 256" fill="none" xmlns="http://www.w3.org/2000/svg" alt="youtube" class="w-100"><path d="M234.33 69.52a24.001 24.001 0 00-14.49-16.4C185.56 39.88 131 40 128 40s-57.56-.12-91.84 13.12a24 24 0 00-14.49 16.4C19.08 79.5 16 97.74 16 128c0 30.26 3.08 48.5 5.67 58.48a23.998 23.998 0 0014.49 16.41C69 215.56 120.4 216 127.34 216h1.32c6.94 0 58.37-.44 91.18-13.11a24.006 24.006 0 0014.49-16.41c2.59-10 5.67-28.22 5.67-58.48 0-30.26-3.08-48.5-5.67-58.48zm-72.11 61.81l-48 32A4.001 4.001 0 01108 160V96a4.005 4.005 0 012.112-3.529 4 4 0 014.108.199l48 32a3.994 3.994 0 011.784 3.33 4.003 4.003 0 01-1.784 3.33z" fill="#000"/></svg>